<svg width="798" height="798" xmlns="http://www.w3.org/2000/svg" xmlns:xlink="http://www.w3.org/1999/xlink" xml:space="preserve" overflow="hidden"><g transform="translate(-1232 -492)"><rect x="1502" y="1020" width="257" height="256" stroke="#000000" stroke-width="27.5" stroke-miterlimit="8" fill="#00B050"/><rect x="1246" y="763" width="256" height="257" stroke="#000000" stroke-width="27.5" stroke-miterlimit="8" fill="#BFBFBF"/><rect x="1502" y="763" width="257" height="257" stroke="#000000" stroke-width="27.5" stroke-miterlimit="8" fill="#FFC000"/><rect x="1759" y="763" width="257" height="257" stroke="#000000" stroke-width="27.5" stroke-miterlimit="8" fill="#00B050"/><rect x="1502" y="506" width="257" height="257" stroke="#000000" stroke-width="27.5" stroke-miterlimit="8" fill="#BFBFBF"/><path d="M1374 506 1502 506 1502 763 1246 763 1246 634.503C1246 563.533 1303.31 506 1374 506Z" stroke="#000000" stroke-width="27.5" stroke-miterlimit="8" fill="#BFBFBF" fill-rule="evenodd"/><path d="M2016 634.504 2016 763 1759 763 1759 506 1887.5 506C1958.47 506 2016 563.533 2016 634.504Z" stroke="#000000" stroke-width="27.5" stroke-miterlimit="8" fill="#BFBFBF" fill-rule="evenodd"/><path d="M1887.5 1276 1759 1276 1759 1020 2016 1020 2016 1148C2016 1218.69 1958.47 1276 1887.5 1276Z" stroke="#000000" stroke-width="27.5" stroke-miterlimit="8" fill="#00B050" fill-rule="evenodd"/><path d="M1246 1148 1246 1020 1502 1020 1502 1276 1374 1276C1303.31 1276 1246 1218.69 1246 1148Z" stroke="#000000" stroke-width="27.5" stroke-miterlimit="8" fill="#00B050" fill-rule="evenodd"/></g></svg>